<svg width="1389" height="2000" viewBox="0 0 1389 2000" fill="none" xmlns="http://www.w3.org/2000/svg">
<g clip-path="url(#clip0)">
<path d="M1840 0H-660V2000H1840V0Z" fill="#5F5F5F"/>
<path d="M1437.88 1183.48L1346.85 1143.01L1427.42 1084.41L1437.88 1183.48Z" fill="white"/>
<path d="M1362.62 1530.96L1344.26 1581.45L1293.77 1563.08L1284.58 1588.32L1335.07 1606.69L1316.7 1657.18L1341.95 1666.36L1360.31 1615.88L1410.8 1634.24L1419.99 1609L1369.5 1590.63L1387.87 1540.14L1362.62 1530.96Z" stroke="white" stroke-width="7.38684" stroke-linecap="round"/>
<path d="M158.392 322.442C169.951 322.442 179.322 313.071 179.322 301.512C179.322 289.953 169.951 280.582 158.392 280.582C146.832 280.582 137.462 289.953 137.462 301.512C137.462 313.071 146.832 322.442 158.392 322.442Z" stroke="white" stroke-width="5.23248" stroke-linecap="round"/>
<path d="M173.56 1060.85C194.578 1060.85 211.616 1043.82 211.616 1022.8C211.616 1001.78 194.578 984.741 173.56 984.741C152.542 984.741 135.504 1001.78 135.504 1022.8C135.504 1043.82 152.542 1060.85 173.56 1060.85Z" fill="white"/>
<path d="M-86.5611 1843.13C-86.5611 1843.13 -94.5046 1792.75 -80.9585 1774.02C-67.4125 1755.29 -30.6172 1765.78 -17.0711 1747.05C-3.52498 1728.33 -25.0147 1696.67 -11.4686 1677.94C2.07753 1659.21 38.8727 1669.71 52.4188 1650.98C65.9648 1632.25 44.4752 1600.59 58.0213 1581.86C71.5674 1563.13 108.362 1573.63 121.909 1554.9C135.455 1536.17 113.965 1504.51 127.511 1485.78C141.057 1467.05 191.399 1458.82 191.399 1458.82" stroke="white" stroke-width="12.558" stroke-linecap="round"/>
<path d="M1001.24 477.11C1001.24 477.11 991.991 451.366 997.245 440.139C1002.5 428.913 1022.94 430.745 1028.19 419.518C1033.44 408.292 1018.94 393.774 1024.2 382.548C1029.45 371.321 1049.89 373.154 1055.14 361.927C1060.39 350.7 1045.89 336.183 1051.15 324.957C1056.4 313.73 1076.84 315.563 1082.09 304.336C1087.35 293.109 1072.85 278.592 1078.1 267.366C1083.35 256.139 1109.04 246.745 1109.04 246.745" stroke="white" stroke-width="12.558" stroke-linecap="round"/>
<path d="M267.459 694.797L215.609 671.741L261.5 638.365L267.459 694.797Z" stroke="white" stroke-width="2.9806" stroke-linecap="round"/>
<path d="M1026.23 1868.85C1038.3 1868.85 1048.08 1859.06 1048.08 1846.99C1048.08 1834.92 1038.3 1825.14 1026.23 1825.14C1014.16 1825.14 1004.37 1834.92 1004.37 1846.99C1004.37 1859.06 1014.16 1868.85 1026.23 1868.85Z" fill="#F8A1A1"/>
<path d="M958.953 657.9C978.454 657.9 994.262 642.092 994.262 622.591C994.262 603.091 978.454 587.282 958.953 587.282C939.453 587.282 923.644 603.091 923.644 622.591C923.644 642.092 939.453 657.9 958.953 657.9Z" stroke="#F8A1A1" stroke-width="10.2985" stroke-linecap="round"/>
<path d="M618.795 1156.44C607.928 1155.15 598.718 1162.95 596.861 1173.74L586.772 1232.32C557.761 1235.13 541.618 1238.95 514.709 1251.87L474.643 1208.23C467.867 1199.63 455.495 1198.17 446.902 1204.95L398.962 1242.75C390.37 1249.53 388.907 1261.9 395.683 1270.49L428.943 1319.83C410.024 1342.9 402.441 1357.63 392.84 1385.13L333.65 1381.3C322.73 1380.59 313 1387.73 311.715 1398.6L304.548 1459.23C303.264 1470.09 311.062 1479.3 321.846 1481.16L380.433 1491.25C383.238 1520.26 387.063 1536.4 399.982 1563.31L356.334 1603.38C347.742 1610.16 346.279 1622.53 353.055 1631.12L390.86 1679.06C397.636 1687.65 409.528 1688.46 418.601 1682.34L467.937 1649.08C491.007 1668 505.739 1675.58 533.242 1685.18L529.41 1744.37C528.703 1755.29 535.839 1765.02 546.706 1766.31L607.336 1773.47C618.203 1774.76 627.414 1766.96 629.271 1756.18L639.361 1697.59C668.371 1694.78 684.513 1690.96 711.423 1678.04L751.489 1721.69C758.265 1730.28 770.638 1731.74 779.23 1724.97L827.169 1687.16C835.762 1680.39 837.224 1668.01 830.448 1659.42L797.189 1610.09C816.109 1587.02 823.692 1572.28 833.293 1544.78L892.483 1548.61C903.402 1549.32 913.132 1542.18 914.416 1531.32L921.583 1470.69C922.867 1459.82 915.071 1450.61 904.287 1448.75L845.699 1438.66C842.895 1409.65 839.069 1393.51 826.15 1366.6L869.797 1326.53C878.389 1319.76 879.852 1307.38 873.076 1298.79L835.272 1250.85C828.496 1242.26 816.124 1240.8 807.531 1247.57L758.195 1280.83C735.126 1261.91 720.394 1254.33 692.891 1244.73L696.723 1185.54C697.43 1174.62 690.292 1164.89 679.425 1163.61L618.795 1156.44ZM631.484 1309.15C672.807 1314.03 710.498 1335.13 736.264 1367.8C762.03 1400.48 773.761 1442.05 768.877 1483.37C763.992 1524.7 742.892 1562.39 710.218 1588.15C677.544 1613.92 635.972 1625.65 594.649 1620.77C574.187 1618.35 554.402 1611.92 536.424 1601.86C518.446 1591.79 502.626 1578.29 489.867 1562.11C477.109 1545.93 467.663 1527.4 462.067 1507.57C456.471 1487.74 454.836 1467 457.255 1446.54C462.139 1405.21 483.24 1367.52 515.914 1341.76C548.588 1315.99 590.16 1304.26 631.484 1309.15V1309.15Z" fill="#F8A1A1"/>
<path d="M636.7 1140.26C625.901 1138.49 616.353 1145.87 614.018 1156.56L601.333 1214.64C572.226 1216.15 555.929 1219.25 528.471 1230.96L490.387 1185.58C484 1176.69 471.705 1174.68 462.819 1181.07L413.245 1216.7C404.36 1223.09 402.348 1235.38 408.735 1244.27L439.768 1295.04C419.841 1317.24 411.61 1331.62 400.795 1358.67L341.834 1352.21C330.957 1351.02 320.918 1357.71 319.151 1368.51L309.295 1428.76C307.528 1439.56 314.909 1449.11 325.6 1451.45L383.68 1464.13C385.191 1493.24 388.295 1509.54 400.004 1536.99L354.617 1575.08C345.731 1581.47 343.72 1593.76 350.107 1602.64L385.742 1652.22C392.129 1661.1 403.973 1662.44 413.31 1656.73L464.077 1625.7C486.282 1645.62 500.661 1653.85 527.711 1664.67L521.249 1723.63C520.057 1734.51 526.754 1744.55 537.553 1746.31L597.804 1756.17C608.603 1757.94 618.152 1750.56 620.487 1739.87L633.172 1681.78C662.279 1680.27 678.575 1677.17 706.033 1665.46L744.118 1710.85C750.505 1719.73 762.8 1721.74 771.685 1715.36L821.259 1679.72C830.144 1673.34 832.155 1661.04 825.768 1652.16L794.737 1601.39C814.664 1579.18 822.895 1564.8 833.71 1537.75L892.671 1544.22C903.548 1545.41 913.585 1538.71 915.352 1527.91L925.209 1467.66C926.976 1456.86 919.596 1447.31 908.905 1444.98L850.825 1432.29C849.314 1403.19 846.21 1386.89 834.501 1359.43L879.887 1321.35C888.772 1314.96 890.784 1302.66 884.397 1293.78L848.763 1244.21C842.376 1235.32 830.08 1233.31 821.195 1239.7L770.428 1270.73C748.223 1250.8 733.844 1242.57 706.794 1231.75L713.256 1172.79C714.448 1161.92 707.75 1151.88 696.951 1150.11L636.7 1140.26ZM642.583 1293.38C683.648 1300.09 720.363 1322.85 744.65 1356.64C768.937 1390.43 778.807 1432.48 772.089 1473.54C765.372 1514.61 742.616 1551.32 708.828 1575.61C675.04 1599.9 632.988 1609.77 591.922 1603.05C571.588 1599.72 552.109 1592.42 534.596 1581.57C517.083 1570.72 501.88 1556.52 489.854 1539.79C477.828 1523.06 469.215 1504.12 464.507 1484.06C459.799 1464 459.088 1443.22 462.414 1422.88C469.133 1381.82 491.889 1345.1 525.677 1320.81C559.465 1296.53 601.517 1286.66 642.583 1293.38V1293.38Z" stroke="#C4C4C4" stroke-width="5.59347"/>
<path d="M843.252 764.968C834.168 766.614 828.663 775.178 829.827 784.337L836.152 834.093C813.44 843.518 801.361 850.589 782.841 867.655L739.742 842.334C732.155 837.075 721.812 838.95 716.553 846.538L687.21 888.871C681.951 896.459 683.825 906.802 691.413 912.061L730.427 943.653C720.858 966.935 718.378 980.691 717.422 1005.25L668.724 1016.77C659.74 1018.9 653.652 1027.06 655.298 1036.14L664.485 1086.82C666.132 1095.91 674.697 1101.41 683.855 1100.25L733.612 1093.92C743.036 1116.64 750.108 1128.72 767.174 1147.24L741.852 1190.33C736.593 1197.92 738.467 1208.26 746.055 1213.52L788.39 1242.87C795.978 1248.13 805.77 1245.84 811.58 1238.66L843.171 1199.65C866.453 1209.22 880.21 1211.7 904.768 1212.65L916.29 1261.35C918.415 1270.34 926.575 1276.42 935.659 1274.78L986.342 1265.59C995.426 1263.94 1000.93 1255.38 999.767 1246.22L993.443 1196.46C1016.15 1187.04 1028.23 1179.97 1046.75 1162.9L1089.85 1188.22C1097.44 1193.48 1107.78 1191.61 1113.04 1184.02L1142.38 1141.69C1147.64 1134.1 1145.77 1123.76 1138.18 1118.5L1099.17 1086.91C1108.74 1063.62 1111.22 1049.87 1112.17 1025.31L1160.87 1013.79C1169.85 1011.66 1175.94 1003.5 1174.3 994.418L1165.11 943.735C1163.46 934.651 1154.9 929.145 1145.74 930.309L1095.98 936.633C1086.56 913.921 1079.49 901.842 1062.42 883.322L1087.74 840.224C1093 832.636 1091.13 822.293 1083.54 817.034L1041.2 787.692C1033.62 782.433 1023.27 784.308 1018.02 791.896L986.424 830.908C963.142 821.339 949.385 818.859 924.826 817.903L913.305 769.206C911.18 760.222 903.019 754.134 893.935 755.781L843.252 764.968ZM891.189 885.031C925.733 878.77 961.349 886.488 990.202 906.487C1019.06 926.485 1038.78 957.127 1045.04 991.671C1051.31 1026.21 1043.59 1061.83 1023.59 1090.68C1003.59 1119.54 972.95 1139.27 938.406 1145.53C921.301 1148.63 903.754 1148.33 886.765 1144.65C869.776 1140.97 853.678 1133.97 839.391 1124.07C825.104 1114.17 812.908 1101.55 803.498 1086.93C794.088 1072.32 787.649 1055.99 784.549 1038.89C778.288 1004.34 786.005 968.727 806.004 939.873C826.003 911.02 856.645 891.293 891.189 885.031V885.031Z" fill="#F8A1A1"/>
<path d="M858.644 741.103C849.496 742.344 843.615 750.654 844.371 759.855L848.476 809.844C825.367 818.249 812.985 824.776 793.724 841.001L751.795 813.788C744.449 808.197 734.033 809.61 728.441 816.956L697.244 857.943C691.653 865.289 693.066 875.705 700.412 881.296L737.981 914.592C727.387 937.425 724.297 951.058 722.25 975.55L673.088 984.893C664.018 986.617 657.573 994.499 658.813 1003.65L665.736 1054.69C666.977 1063.84 675.289 1069.72 684.49 1068.96L734.479 1064.86C742.884 1087.97 749.411 1100.35 765.636 1119.61L738.422 1161.54C732.831 1168.88 734.243 1179.3 741.59 1184.89L782.577 1216.09C789.923 1221.68 799.808 1219.83 805.931 1212.92L839.226 1175.35C862.06 1185.95 875.692 1189.04 900.184 1191.08L909.528 1240.25C911.252 1249.32 919.132 1255.76 928.281 1254.52L979.322 1247.6C988.47 1246.36 994.352 1238.04 993.596 1228.84L989.491 1178.85C1012.6 1170.45 1024.98 1163.92 1044.24 1147.7L1086.17 1174.91C1093.52 1180.5 1103.93 1179.09 1109.53 1171.74L1140.72 1130.76C1146.31 1123.41 1144.9 1112.99 1137.55 1107.4L1099.99 1074.11C1110.58 1051.27 1113.67 1037.64 1115.72 1013.15L1164.88 1003.8C1173.95 1002.08 1180.39 994.2 1179.15 985.052L1172.23 934.011C1170.99 924.862 1162.68 918.981 1153.48 919.736L1103.49 923.841C1095.08 900.732 1088.56 888.351 1072.33 869.09L1099.54 827.161C1105.14 819.814 1103.72 809.398 1096.38 803.807L1055.39 772.611C1048.04 767.019 1037.63 768.432 1032.04 775.778L998.741 813.347C975.907 802.752 962.275 799.662 937.783 797.615L928.439 748.453C926.715 739.383 918.834 732.939 909.685 734.18L858.644 741.103ZM901.193 863.18C935.981 858.462 971.218 867.756 999.154 889.019C1027.09 910.281 1045.43 941.77 1050.15 976.558C1052.49 993.783 1051.41 1011.3 1046.98 1028.11C1042.54 1044.92 1034.84 1060.69 1024.31 1074.52C1013.79 1088.35 1000.64 1099.98 985.616 1108.73C970.596 1117.48 954 1123.18 936.775 1125.52C919.549 1127.86 902.032 1126.78 885.224 1122.34C868.415 1117.91 852.645 1110.21 838.812 1099.68C824.98 1089.15 813.357 1076 804.607 1060.98C795.856 1045.96 790.15 1029.37 787.814 1012.14C783.095 977.352 792.39 942.114 813.653 914.179C834.915 886.243 866.404 867.899 901.193 863.18V863.18Z" stroke="#C4C4C4" stroke-width="4.71911"/>
<path d="M562.494 681.915C556.165 678.88 548.956 681.701 545.59 687.861L527.302 721.329C509.111 717.008 498.518 715.979 479.502 718.234L464.244 683.423C461.914 676.801 454.708 673.344 448.086 675.673L411.138 688.668C404.516 690.997 401.059 698.203 403.388 704.826L413.335 741.678C397.061 751.753 389.4 759.121 377.863 773.822L342.73 759.208C336.249 756.512 328.86 758.824 325.825 765.153L308.888 800.468C305.852 806.797 308.673 814.007 314.834 817.373L348.301 835.66C343.981 853.851 342.952 864.444 345.207 883.46L310.395 898.719C303.772 901.048 300.316 908.254 302.646 914.876L315.64 951.824C317.97 958.447 325.021 961.403 331.798 959.574L368.65 949.628C378.725 965.901 386.093 973.562 400.795 985.1L386.18 1020.23C383.484 1026.71 385.796 1034.1 392.126 1037.14L427.44 1054.07C433.77 1057.11 440.979 1054.29 444.345 1048.13L462.633 1014.66C480.824 1018.98 491.417 1020.01 510.433 1017.76L525.691 1052.57C528.02 1059.19 535.227 1062.65 541.849 1060.32L578.796 1047.32C585.419 1044.99 588.875 1037.79 586.546 1031.16L576.6 994.313C592.874 984.237 600.535 976.869 612.072 962.168L647.205 976.782C653.686 979.478 661.074 977.166 664.109 970.836L681.047 935.522C684.082 929.192 681.262 921.983 675.101 918.617L641.634 900.329C645.954 882.138 646.983 871.545 644.728 852.529L679.539 837.271C686.162 834.942 689.618 827.735 687.289 821.113L674.294 784.166C671.965 777.543 664.759 774.087 658.136 776.416L621.285 786.362C611.21 770.089 603.842 762.428 589.14 750.89L603.755 715.757C606.451 709.276 604.138 701.888 597.808 698.853L562.494 681.915ZM538.494 777.242C562.563 788.786 581.06 809.418 589.917 834.6C598.774 859.783 597.264 887.452 585.72 911.521C574.177 935.59 553.544 954.088 528.362 962.945C503.18 971.802 475.51 970.292 451.441 958.748C439.523 953.032 428.848 945.025 420.024 935.183C411.201 925.342 404.403 913.858 400.017 901.389C395.632 888.92 393.745 875.71 394.465 862.511C395.185 849.313 398.498 836.386 404.214 824.468C415.758 800.399 436.391 781.901 461.573 773.045C486.755 764.188 514.424 765.698 538.494 777.242V777.242Z" fill="white"/>
<path d="M574.891 664.174C568.703 660.859 561.375 663.357 557.739 669.361L537.981 701.982C519.999 696.857 509.463 695.357 490.365 696.764L476.671 661.309C474.638 654.59 467.593 650.816 460.873 652.848L423.384 664.186C416.665 666.218 412.891 673.264 414.923 679.983L423.221 717.242C406.515 726.583 398.534 733.603 386.354 747.776L351.906 731.613C345.551 728.631 338.067 730.613 334.753 736.801L316.262 771.327C312.947 777.515 315.445 784.843 321.45 788.48L354.071 808.238C348.946 826.219 347.446 836.755 348.853 855.853L313.397 869.548C306.677 871.58 302.904 878.625 304.936 885.345L316.275 922.834C318.307 929.554 325.22 932.821 332.072 931.295L369.33 922.998C378.671 939.703 385.691 947.684 399.865 959.864L383.702 994.313C380.72 1000.67 382.701 1008.15 388.889 1011.46L423.415 1029.96C429.603 1033.27 436.931 1030.77 440.568 1024.77L460.326 992.147C478.307 997.272 488.844 998.772 507.941 997.365L521.636 1032.82C523.668 1039.54 530.714 1043.31 537.433 1041.28L574.922 1029.94C581.642 1027.91 585.415 1020.87 583.383 1014.15L575.086 976.889C591.792 967.548 599.773 960.528 611.953 946.354L646.401 962.516C652.756 965.498 660.239 963.517 663.553 957.329L682.044 922.803C685.359 916.615 682.862 909.287 676.857 905.65L644.236 885.892C649.362 867.911 650.861 857.374 649.454 838.276L684.909 824.582C691.629 822.55 695.402 815.504 693.37 808.785L682.032 771.296C680 764.577 672.954 760.803 666.235 762.835L628.977 771.132C619.636 754.427 612.616 746.445 598.443 734.265L614.605 699.818C617.587 693.462 615.605 685.979 609.417 682.665L574.891 664.174ZM546.674 758.338C570.205 770.941 587.767 792.376 595.495 817.927C603.222 843.479 600.483 871.053 587.88 894.585C575.277 918.117 553.842 935.678 528.291 943.406C502.74 951.134 475.165 948.395 451.633 935.792C439.981 929.552 429.673 921.077 421.296 910.853C412.919 900.629 406.638 888.854 402.812 876.203C398.985 863.551 397.688 850.269 398.995 837.116C400.301 823.963 404.186 811.196 410.426 799.544C423.029 776.012 444.464 758.451 470.016 750.723C495.567 742.996 523.142 745.735 546.674 758.338V758.338Z" stroke="#C4C4C4" stroke-width="3.5883"/>
<path d="M939.248 1657.82C938.788 1657.32 938.311 1656.96 937.816 1656.76C932.534 1654.61 915.734 1667.18 911.234 1670.68C906.735 1674.18 890.424 1687.37 891.207 1693.02C895.504 1703.17 912.831 1702.34 909.747 1709.72C887.802 1762 839.655 1798.59 783.408 1805.72C774.992 1806.53 776.607 1819.24 784.957 1817.92C845.543 1810.23 897.442 1770.79 921.079 1714.48C922.063 1705.18 938.632 1719.96 945.917 1715.25C950.417 1711.75 947.934 1690.92 947.152 1685.27C946.443 1680.16 943.689 1662.66 939.248 1657.82V1657.82Z" fill="#F8A1A1"/>
<path d="M933.634 1648.32C933.175 1647.82 932.698 1647.45 932.203 1647.25C926.921 1645.11 910.121 1657.67 905.621 1661.17C901.121 1664.67 884.811 1677.87 885.593 1683.52C889.89 1693.67 907.218 1692.83 904.134 1700.22C882.189 1752.5 834.042 1789.08 777.795 1796.22C769.379 1797.03 770.994 1809.74 779.344 1808.41C839.93 1800.73 891.828 1761.29 915.466 1704.98C916.45 1695.68 933.019 1710.45 940.304 1705.75C944.803 1702.25 942.321 1681.42 941.539 1675.77C940.83 1670.65 938.076 1653.15 933.634 1648.32V1648.32Z" stroke="#C4C4C4" stroke-width="5.23248" stroke-linecap="round"/>
<path d="M1181.31 824.435C1180.82 824.584 1180.41 824.789 1180.11 825.061C1176.9 827.961 1179.95 843.576 1180.85 847.803C1181.76 852.03 1185.4 867.518 1189.52 868.845C1197.86 869.254 1203 857.145 1207.03 861.687C1235.5 893.902 1244.62 938.841 1230.96 979.607C1228.74 985.621 1237.95 988.706 1239.8 982.567C1254.52 938.657 1244.68 890.216 1214.02 855.515C1207.99 851.779 1223.54 845.331 1222.73 838.807C1221.82 834.58 1206.78 829.41 1202.66 828.083C1198.93 826.881 1186.07 822.995 1181.31 824.435V824.435Z" fill="#F8A1A1"/>
<path d="M1167.41 825.061C1166.91 825.21 1166.5 825.415 1166.2 825.687C1163 828.587 1166.04 844.202 1166.95 848.429C1167.86 852.656 1171.5 868.144 1175.61 869.471C1183.96 869.88 1189.1 857.771 1193.13 862.312C1221.6 894.528 1230.72 939.467 1217.06 980.233C1214.83 986.247 1224.05 989.332 1225.9 983.193C1240.61 939.283 1230.78 890.842 1200.11 856.141C1194.09 852.404 1209.64 845.957 1208.83 839.432C1207.92 835.206 1192.87 830.036 1188.76 828.709C1185.03 827.506 1172.17 823.621 1167.41 825.061V825.061Z" stroke="#C4C4C4" stroke-width="3.96784" stroke-linecap="round"/>
<path d="M499.948 1126.77C499.73 1126.35 499.602 1125.96 499.585 1125.59C499.41 1121.67 511.445 1113.66 514.756 1111.54C518.067 1109.43 530.398 1101.88 533.885 1103.69C539.482 1108.82 534.944 1119.88 540.452 1119.58C579.459 1117.39 614.32 1094.57 631.927 1059.69C634.392 1054.42 642.272 1058.4 639.488 1063.51C620.522 1101.08 582.944 1125.68 540.927 1128.04C534.663 1126.53 540.434 1140.7 535.701 1144.35C532.389 1146.46 519.436 1140.04 515.949 1138.23C512.79 1136.59 502.062 1130.77 499.948 1126.77V1126.77Z" fill="white"/>
<path d="M485.001 1122.04C484.783 1121.62 484.654 1121.23 484.638 1120.86C484.463 1116.94 496.498 1108.93 499.809 1106.81C503.12 1104.7 515.451 1097.15 518.937 1098.96C524.535 1104.09 519.996 1115.15 525.505 1114.85C564.512 1112.66 599.372 1089.84 616.979 1054.96C619.445 1049.69 627.325 1053.67 624.54 1058.78C605.575 1096.35 567.996 1120.95 525.98 1123.31C519.716 1121.8 525.487 1135.97 520.753 1139.62C517.442 1141.73 504.488 1135.31 501.002 1133.5C497.842 1131.86 487.115 1126.04 485.001 1122.04V1122.04Z" fill="white" stroke="#C4C4C4" stroke-width="3.60551" stroke-linecap="round"/>
<path d="M679.296 298.794L679.296 298.794C678.863 297.179 677.203 296.22 675.588 296.653L614.205 313.1C612.59 313.533 611.631 315.193 612.064 316.809C612.497 318.424 614.157 319.382 615.772 318.95L677.155 302.502C678.77 302.069 679.729 300.409 679.296 298.794Z" fill="#F8A1A1"/>
<path d="M670.468 295.28L670.468 295.28C670.901 296.895 669.942 298.556 668.327 298.989L606.944 315.436C605.329 315.869 603.668 314.91 603.236 313.295L603.236 313.295C602.803 311.68 603.761 310.02 605.377 309.587L666.76 293.139C668.375 292.706 670.035 293.665 670.468 295.28Z" stroke="#C4C4C4" stroke-width="2.67719" stroke-linecap="round"/>
<path d="M581.407 358.864C589.11 330.115 575.06 299.985 548.086 287.407C535.054 281.33 520.3 280.025 506.404 283.721C492.432 287.436 480.221 295.969 471.928 307.813C454.857 332.193 457.755 365.311 478.801 386.357C478.801 386.357 506.964 414.374 512.22 424.497C515.698 431.196 516.466 440.346 516.466 440.346C517.564 444.441 521.744 446.855 525.84 445.758L570.37 433.826C574.465 432.728 576.88 428.548 575.782 424.452C575.782 424.452 571.873 416.144 571.535 408.603C571.026 397.209 581.407 358.864 581.407 358.864V358.864Z" fill="white" stroke="#DE8787" stroke-width="4.89054"/>
<path d="M509.384 377.536L541.182 444.21" stroke="#DE8787" stroke-width="3.26036" stroke-linecap="round"/>
<path d="M553.66 365.672L559.459 439.313" stroke="#DE8787" stroke-width="3.26036" stroke-linecap="round"/>
<path d="M517.003 392.776C517.003 392.776 518.611 387.585 520.523 387.073C522.435 386.561 524.511 390.764 526.422 390.252C528.334 389.739 528.031 385.061 529.943 384.549C531.854 384.037 533.93 388.24 535.842 387.728C537.754 387.215 537.45 382.537 539.362 382.025C541.274 381.513 543.35 385.716 545.262 385.204C547.174 384.691 546.87 380.013 548.782 379.501C550.694 378.989 554.681 382.68 554.681 382.68" stroke="#DE8787" stroke-width="3.26036" stroke-linecap="round"/>
<path d="M574.173 357.426C581.876 328.677 567.827 298.547 540.852 285.969C527.82 279.892 513.066 278.588 499.17 282.284C485.198 285.999 472.987 294.532 464.695 306.376C447.623 330.756 450.521 363.874 471.567 384.92C471.567 384.92 499.73 412.937 504.986 423.06C508.464 429.759 509.232 438.909 509.232 438.909C510.33 443.004 514.51 445.418 518.606 444.32L563.136 432.389C567.231 431.291 569.645 427.111 568.548 423.015C568.548 423.015 564.639 414.707 564.301 407.166C563.792 395.772 574.173 357.426 574.173 357.426V357.426Z" stroke="#C4C4C4" stroke-width="2.91069"/>
<path d="M578.102 432.338L524.698 446.648C521.595 447.479 519.753 450.669 520.585 453.772L522.243 459.963C523.075 463.066 526.265 464.908 529.368 464.076L582.772 449.766C585.876 448.935 587.717 445.745 586.886 442.642L585.227 436.451C584.395 433.348 581.206 431.506 578.102 432.338Z" fill="#F8A1A1"/>
<path d="M577.19 455.203L536.921 465.994C533.817 466.825 531.976 470.015 532.807 473.118L533.753 476.646C534.584 479.75 537.774 481.591 540.877 480.76L581.147 469.969C584.25 469.138 586.092 465.948 585.26 462.845L584.315 459.317C583.483 456.214 580.294 454.372 577.19 455.203Z" fill="#F8A1A1"/>
<path d="M576.455 475.168C577.272 478.215 572.358 481.09 569.148 483.021C567.542 483.987 565.581 484.78 563.672 485.292C561.763 485.803 559.668 486.097 557.795 486.063C554.049 485.996 548.356 485.963 547.539 482.916L576.455 475.168Z" fill="#F8A1A1"/>
<path d="M499.731 373.371L531.53 440.046" stroke="#C4C4C4" stroke-width="2.91056" stroke-linecap="round"/>
<path d="M544.007 361.507L549.807 435.148" stroke="#C4C4C4" stroke-width="2.91056" stroke-linecap="round"/>
<path d="M507.35 388.611C507.35 388.611 508.959 383.421 510.87 382.908C512.782 382.396 514.858 386.599 516.77 386.087C518.682 385.575 518.378 380.897 520.29 380.384C522.202 379.872 524.278 384.075 526.19 383.563C528.101 383.051 527.798 378.373 529.71 377.86C531.621 377.348 533.697 381.551 535.609 381.039C537.521 380.527 537.217 375.849 539.129 375.336C541.041 374.824 545.029 378.515 545.029 378.515" stroke="#C4C4C4" stroke-width="2.91056" stroke-linecap="round"/>
<path d="M483.394 185.69L483.394 185.69C481.779 186.122 480.82 187.783 481.253 189.398L497.7 250.781C498.133 252.396 499.793 253.355 501.409 252.922C503.024 252.489 503.982 250.829 503.55 249.214L487.102 187.831C486.669 186.215 485.009 185.257 483.394 185.69Z" fill="#F8A1A1"/>
<path d="M402.478 281.339L402.478 281.34C401.642 282.788 402.138 284.639 403.586 285.476L433.662 302.84C435.11 303.676 436.962 303.18 437.798 301.732L437.798 301.732C438.634 300.284 438.138 298.432 436.69 297.596L406.614 280.231C405.165 279.395 403.314 279.891 402.478 281.339Z" fill="#F8A1A1"/>
<path d="M601.294 228.067L601.294 228.067C599.846 227.231 597.994 227.727 597.158 229.175L579.794 259.251C578.958 260.699 579.454 262.551 580.902 263.387C582.35 264.223 584.202 263.727 585.038 262.279L602.403 232.203C603.239 230.755 602.742 228.903 601.294 228.067Z" fill="#F8A1A1"/>
<path d="M372.431 377.884C370.815 378.316 369.857 379.977 370.29 381.592C370.722 383.207 372.383 384.166 373.998 383.733L435.381 367.285C436.996 366.853 437.955 365.192 437.522 363.577C437.089 361.962 435.429 361.003 433.814 361.436L372.431 377.884Z" fill="#F8A1A1"/>
<path d="M425.607 457.027L425.607 457.027C426.79 458.209 428.707 458.209 429.889 457.027L454.446 432.469C455.629 431.287 455.629 429.37 454.446 428.187C453.264 427.005 451.347 427.005 450.164 428.187L425.607 452.745C424.425 453.927 424.425 455.844 425.607 457.027Z" fill="#F8A1A1"/>
<path d="M665.399 393.922C667.014 394.355 668.674 393.396 669.107 391.781C669.54 390.166 668.581 388.506 666.966 388.073L633.42 379.084C631.805 378.651 630.145 379.61 629.712 381.225C629.279 382.84 630.238 384.501 631.853 384.934L665.399 393.922Z" fill="#F8A1A1"/>
<path d="M562.995 433.01L509.591 447.32C506.488 448.151 504.646 451.341 505.478 454.444L507.136 460.635C507.968 463.738 511.158 465.58 514.261 464.748L567.665 450.439C570.769 449.607 572.61 446.418 571.779 443.314L570.12 437.124C569.288 434.02 566.099 432.179 562.995 433.01Z" stroke="#C4C4C4" stroke-width="2.91056"/>
<path d="M562.083 455.876L521.813 466.666C518.71 467.498 516.869 470.687 517.7 473.791L518.646 477.319C519.477 480.422 522.667 482.264 525.77 481.432L566.04 470.642C569.143 469.81 570.985 466.621 570.153 463.517L569.208 459.989C568.376 456.886 565.187 455.044 562.083 455.876Z" stroke="#C4C4C4" stroke-width="2.91056"/>
<path d="M561.348 475.84C562.165 478.887 557.251 481.762 554.04 483.694C552.435 484.659 550.473 485.453 548.565 485.964C546.656 486.475 544.561 486.769 542.688 486.735C538.942 486.668 533.249 486.635 532.432 483.588L561.348 475.84Z" stroke="#C4C4C4" stroke-width="2.91056"/>
<path d="M474.566 182.176L474.566 182.176C476.181 181.743 477.841 182.702 478.274 184.317L494.722 245.7C495.154 247.315 494.196 248.975 492.581 249.408L492.581 249.408C490.965 249.841 489.305 248.882 488.872 247.267L472.425 185.884C471.992 184.269 472.951 182.609 474.566 182.176Z" stroke="#C4C4C4" stroke-width="2.67719" stroke-linecap="round"/>
<path d="M397.786 276.717C396.338 275.881 394.486 276.378 393.65 277.826C392.814 279.274 393.31 281.126 394.758 281.962L424.834 299.326C426.282 300.162 428.134 299.666 428.97 298.218C429.806 296.77 429.31 294.918 427.862 294.082L397.786 276.717Z" stroke="#C4C4C4" stroke-width="2.67719" stroke-linecap="round"/>
<path d="M592.466 224.553L592.466 224.553C593.914 225.389 594.411 227.241 593.575 228.689L576.21 258.765C575.374 260.214 573.522 260.71 572.074 259.874L572.074 259.874C570.626 259.038 570.13 257.186 570.966 255.738L588.33 225.661C589.166 224.213 591.018 223.717 592.466 224.553Z" stroke="#C4C4C4" stroke-width="2.67719" stroke-linecap="round"/>
<path d="M361.462 378.078L361.462 378.078C361.029 376.463 361.987 374.803 363.603 374.37L424.986 357.922C426.601 357.49 428.261 358.448 428.694 360.063L428.694 360.064C429.127 361.679 428.168 363.339 426.553 363.772L365.17 380.219C363.555 380.652 361.894 379.694 361.462 378.078Z" stroke="#C4C4C4" stroke-width="2.67719" stroke-linecap="round"/>
<path d="M416.779 453.513L416.779 453.513C415.597 452.33 415.597 450.413 416.779 449.231L441.336 424.674C442.519 423.491 444.436 423.491 445.618 424.674L445.618 424.674C446.801 425.856 446.801 427.773 445.618 428.956L421.061 453.513C419.879 454.695 417.962 454.695 416.779 453.513Z" stroke="#C4C4C4" stroke-width="2.67719" stroke-linecap="round"/>
<path d="M660.279 388.267L660.279 388.267C660.712 386.652 659.753 384.992 658.138 384.559L624.592 375.571C622.977 375.138 621.317 376.096 620.884 377.712L620.884 377.712C620.451 379.327 621.41 380.987 623.025 381.42L656.571 390.408C658.186 390.841 659.846 389.883 660.279 388.267Z" stroke="#C4C4C4" stroke-width="2.67719" stroke-linecap="round"/>
<path d="M529.84 296.264C535.967 296.11 541.974 297.982 546.928 301.59C551.883 305.198 555.509 310.34 557.243 316.219" stroke="#DE8787" stroke-width="4.89054" stroke-linecap="round"/>
<path d="M60.6896 436.936C19.0808 436.936 -14.6497 462.344 -14.6495 493.688C-14.6492 525.031 19.0812 550.439 60.6896 550.439C75.0555 550.435 89.121 547.34 101.228 541.515C101.228 541.515 133.625 555.851 137.143 550.853C139.833 547.032 121.166 527.42 121.166 527.42C130.787 517.665 135.997 505.84 136.029 493.688C136.029 462.344 102.298 436.936 60.6896 436.936V436.936Z" fill="white"/>
<path d="M64.1515 427.879C22.5427 427.879 -11.1878 453.288 -11.1876 484.631C-11.1873 515.974 22.5431 541.383 64.1515 541.383C78.5174 541.379 92.5829 538.284 104.69 532.458C104.69 532.458 137.087 546.795 140.605 541.796C143.295 537.976 124.628 518.363 124.628 518.363C134.249 508.608 139.459 496.784 139.491 484.631C139.491 453.288 105.76 427.879 64.1515 427.879V427.879Z" stroke="white" stroke-width="2.90303" stroke-linecap="round"/>
<path d="M1081.26 1330.32H1056.61C1052.72 1330.32 1049.56 1333.48 1049.56 1337.37V1390.52C1049.56 1394.42 1052.72 1397.57 1056.61 1397.57H1081.26C1085.15 1397.57 1088.31 1394.42 1088.31 1390.52V1337.37C1088.31 1333.48 1085.15 1330.32 1081.26 1330.32Z" fill="white"/>
<path d="M1074.76 1321.73H1050.11C1046.21 1321.73 1043.06 1324.88 1043.06 1328.78V1381.93C1043.06 1385.82 1046.21 1388.98 1050.11 1388.98H1074.76C1078.65 1388.98 1081.81 1385.82 1081.81 1381.93V1328.78C1081.81 1324.88 1078.65 1321.73 1074.76 1321.73Z" stroke="white" stroke-width="3.68671" stroke-linecap="round"/>
<path d="M1128.71 1274.77C1123.86 1274.77 1121.73 1278.67 1121.73 1283.52L1124.18 1300.61L1123.53 1306.11L1103.52 1337.71H1092.5V1385.35C1099.98 1386.05 1110.24 1391.17 1117.32 1391.22H1163.11C1167.94 1391.22 1171.84 1387.1 1171.84 1381.99C1171.84 1378.57 1170.1 1375.61 1167.5 1374.01H1173.02C1177.86 1374.01 1181.75 1369.89 1181.75 1364.78C1181.75 1361.36 1180.01 1358.4 1177.41 1356.8H1178.84C1183.68 1356.8 1187.57 1352.68 1187.57 1347.57C1187.57 1342.86 1184.27 1339 1179.96 1338.42C1182.63 1336.84 1184.43 1333.83 1184.43 1330.36C1184.43 1325.25 1180.53 1321.13 1175.69 1321.13H1142.46C1142.46 1321.13 1146.25 1306.56 1145.1 1299.33C1141.09 1287.73 1141.25 1274.77 1128.71 1274.77V1274.77Z" fill="white"/>
<path d="M1122.4 1270.25C1117.56 1270.25 1115.42 1274.15 1115.42 1278.99L1117.87 1296.08L1117.22 1301.59L1097.21 1333.19H1086.19V1380.82C1093.67 1381.53 1103.94 1386.64 1111.02 1386.7H1156.8C1161.64 1386.7 1165.53 1382.58 1165.53 1377.46C1165.53 1374.05 1163.79 1371.08 1161.19 1369.49H1166.71C1171.55 1369.49 1175.44 1365.37 1175.44 1360.25C1175.44 1356.84 1173.7 1353.87 1171.1 1352.28H1172.53C1177.37 1352.28 1181.27 1348.16 1181.27 1343.05C1181.27 1338.33 1177.96 1334.47 1173.65 1333.89C1176.32 1332.32 1178.12 1329.31 1178.12 1325.84C1178.12 1320.72 1174.22 1316.61 1169.38 1316.61H1136.15C1136.15 1316.61 1139.94 1302.03 1138.8 1294.8C1134.78 1283.21 1134.95 1270.25 1122.4 1270.25V1270.25Z" stroke="white" stroke-width="2.64542" stroke-linecap="round"/>
<path d="M1198.8 389.03C1195.04 388.022 1191.03 388.55 1187.66 390.498C1184.28 392.445 1181.82 395.654 1180.81 399.417C1180.22 401.633 1180.16 403.957 1180.63 406.202C1181.1 408.447 1182.08 410.551 1183.51 412.345L1148.51 402.967C1144.42 401.87 1140.24 404.283 1139.14 408.379L1128.65 447.538C1130.44 446.109 1132.55 445.12 1134.79 444.651C1137.04 444.182 1139.36 444.245 1141.58 444.836C1143.44 445.335 1145.19 446.196 1146.72 447.37C1148.25 448.545 1149.53 450.009 1150.5 451.679C1151.46 453.35 1152.09 455.194 1152.34 457.106C1152.59 459.019 1152.46 460.962 1151.96 462.825C1150.96 466.588 1148.49 469.796 1145.12 471.744C1141.75 473.692 1137.74 474.22 1133.97 473.211C1131.76 472.615 1129.72 471.508 1128.01 469.979C1126.3 468.45 1124.97 466.542 1124.13 464.408L1113.64 503.564C1112.54 507.66 1114.95 511.84 1119.05 512.938L1154.04 522.315C1151.91 523.155 1150 524.484 1148.47 526.193C1146.95 527.903 1145.84 529.947 1145.24 532.162C1144.74 534.025 1144.62 535.968 1144.87 537.88C1145.12 539.793 1145.75 541.637 1146.71 543.307C1147.67 544.978 1148.96 546.442 1150.49 547.616C1152.02 548.791 1153.77 549.652 1155.63 550.151C1159.39 551.16 1163.4 550.632 1166.78 548.684C1170.15 546.736 1172.61 543.528 1173.62 539.765C1174.21 537.549 1174.27 535.225 1173.8 532.98C1173.33 530.735 1172.35 528.631 1170.92 526.836L1205.92 536.214C1210.01 537.312 1214.19 534.898 1215.29 530.802L1225.78 491.645C1223.99 493.073 1221.88 494.062 1219.64 494.531C1217.39 495 1215.07 494.937 1212.85 494.347C1209.09 493.338 1205.88 490.877 1203.93 487.503C1201.99 484.129 1201.46 480.12 1202.47 476.357C1202.97 474.494 1203.83 472.747 1205 471.217C1206.18 469.687 1207.64 468.403 1209.31 467.438C1210.98 466.474 1212.82 465.848 1214.74 465.596C1216.65 465.344 1218.59 465.472 1220.46 465.971C1222.67 466.567 1224.71 467.674 1226.42 469.203C1228.13 470.732 1229.46 472.64 1230.3 474.774L1240.79 435.617C1241.89 431.522 1239.48 427.341 1235.38 426.244L1200.39 416.866C1202.52 416.026 1204.43 414.698 1205.96 412.988C1207.48 411.278 1208.59 409.234 1209.19 407.02C1210.2 403.257 1209.67 399.248 1207.72 395.874C1205.77 392.5 1202.56 390.038 1198.8 389.03V389.03Z" fill="white"/>
<path d="M1312.61 507.677C1308.85 506.669 1304.84 507.197 1301.46 509.145C1298.09 511.092 1295.63 514.301 1294.62 518.064C1294.03 520.28 1293.97 522.604 1294.44 524.849C1294.9 527.094 1295.89 529.198 1297.32 530.992L1262.32 521.614C1258.23 520.517 1254.05 522.931 1252.95 527.026L1242.46 566.182C1241.62 564.048 1240.29 562.14 1238.58 560.612C1236.87 559.083 1234.83 557.977 1232.61 557.38C1230.75 556.881 1228.8 556.753 1226.89 557.005C1224.98 557.257 1223.14 557.883 1221.46 558.847C1219.79 559.812 1218.33 561.096 1217.16 562.626C1215.98 564.156 1215.12 565.903 1214.62 567.766C1214.12 569.63 1213.99 571.573 1214.25 573.485C1214.5 575.398 1215.12 577.242 1216.09 578.912C1217.05 580.583 1218.34 582.047 1219.87 583.221C1221.4 584.395 1223.14 585.257 1225.01 585.756C1227.22 586.346 1229.55 586.41 1231.79 585.94C1234.04 585.471 1236.14 584.483 1237.94 583.055L1227.44 622.211C1226.35 626.307 1228.76 630.487 1232.86 631.585L1267.86 640.963C1266.43 639.169 1265.44 637.064 1264.97 634.819C1264.5 632.574 1264.56 630.25 1265.15 628.033C1266.16 624.27 1268.62 621.062 1272 619.114C1275.37 617.167 1279.38 616.639 1283.14 617.647C1285.01 618.146 1286.75 619.008 1288.28 620.182C1289.81 621.356 1291.1 622.82 1292.06 624.491C1293.03 626.161 1293.65 628.005 1293.9 629.918C1294.16 631.83 1294.03 633.773 1293.53 635.637C1292.93 637.851 1291.83 639.895 1290.3 641.605C1288.77 643.315 1286.86 644.644 1284.73 645.484L1319.72 654.861C1323.82 655.959 1328 653.545 1329.1 649.449L1339.59 610.294C1340.43 612.428 1341.76 614.336 1343.47 615.864C1345.18 617.393 1347.22 618.5 1349.44 619.096C1353.2 620.105 1357.21 619.577 1360.58 617.629C1363.96 615.681 1366.42 612.473 1367.43 608.71C1368.43 604.947 1367.91 600.938 1365.96 597.564C1364.01 594.191 1360.8 591.729 1357.04 590.721C1354.82 590.13 1352.5 590.067 1350.25 590.536C1348.01 591.005 1345.91 591.993 1344.11 593.421L1354.6 554.264C1355.7 550.169 1353.29 545.988 1349.19 544.891L1314.19 535.513C1316.33 534.673 1318.24 533.345 1319.76 531.635C1321.29 529.925 1322.4 527.881 1323 525.667C1323.5 523.804 1323.62 521.86 1323.37 519.948C1323.12 518.036 1322.49 516.192 1321.53 514.521C1320.56 512.851 1319.28 511.386 1317.75 510.212C1316.22 509.038 1314.47 508.176 1312.61 507.677V507.677Z" fill="#F8A1A1"/>
<path d="M1190.11 381.807C1186.34 380.799 1182.33 381.326 1178.96 383.274C1175.59 385.222 1173.13 388.43 1172.12 392.193C1171.53 394.409 1171.46 396.733 1171.93 398.978C1172.4 401.223 1173.39 403.327 1174.82 405.122L1139.82 395.744C1135.72 394.646 1131.54 397.06 1130.45 401.156L1119.95 440.314C1121.75 438.885 1123.85 437.897 1126.1 437.428C1128.34 436.959 1130.67 437.022 1132.88 437.612C1134.75 438.111 1136.49 438.973 1138.02 440.147C1139.55 441.321 1140.84 442.785 1141.8 444.456C1142.77 446.126 1143.39 447.97 1143.64 449.883C1143.9 451.795 1143.77 453.739 1143.27 455.602C1142.26 459.365 1139.8 462.573 1136.43 464.521C1133.05 466.469 1129.04 466.996 1125.28 465.988C1123.07 465.391 1121.02 464.284 1119.31 462.755C1117.6 461.227 1116.27 459.319 1115.43 457.184L1104.94 496.341C1103.84 500.436 1106.26 504.617 1110.35 505.714L1145.35 515.092C1143.22 515.932 1141.31 517.26 1139.78 518.97C1138.25 520.68 1137.14 522.724 1136.55 524.938C1136.05 526.801 1135.92 528.745 1136.17 530.657C1136.43 532.569 1137.05 534.414 1138.02 536.084C1138.98 537.755 1140.26 539.219 1141.79 540.393C1143.32 541.567 1145.07 542.429 1146.93 542.928C1150.7 543.936 1154.71 543.408 1158.08 541.46C1161.45 539.513 1163.92 536.304 1164.92 532.541C1165.51 530.325 1165.58 528.001 1165.11 525.756C1164.64 523.511 1163.65 521.407 1162.22 519.613L1197.22 528.991C1201.32 530.088 1205.5 527.675 1206.6 523.579L1217.09 484.421C1215.29 485.85 1213.19 486.839 1210.94 487.308C1208.7 487.777 1206.37 487.714 1204.16 487.123C1200.39 486.115 1197.19 483.653 1195.24 480.28C1193.29 476.906 1192.76 472.897 1193.77 469.134C1194.27 467.27 1195.13 465.524 1196.31 463.994C1197.48 462.463 1198.94 461.179 1200.62 460.215C1202.29 459.25 1204.13 458.624 1206.04 458.373C1207.95 458.121 1209.9 458.248 1211.76 458.747C1213.98 459.344 1216.02 460.451 1217.73 461.98C1219.44 463.508 1220.77 465.416 1221.61 467.55L1232.1 428.394C1233.2 424.298 1230.78 420.118 1226.69 419.02L1191.69 409.643C1193.83 408.803 1195.73 407.474 1197.26 405.765C1198.79 404.055 1199.9 402.011 1200.49 399.796C1201.5 396.034 1200.97 392.024 1199.03 388.651C1197.08 385.277 1193.87 382.815 1190.11 381.807V381.807Z" stroke="white" stroke-width="2.84043"/>
<path d="M1303.91 500.454C1300.15 499.446 1296.14 499.974 1292.77 501.921C1289.4 503.869 1286.93 507.077 1285.93 510.84C1285.33 513.057 1285.27 515.38 1285.74 517.625C1286.21 519.87 1287.2 521.974 1288.63 523.769L1253.63 514.391C1249.53 513.294 1245.35 515.707 1244.25 519.803L1233.76 558.959C1232.92 556.825 1231.59 554.917 1229.88 553.389C1228.17 551.86 1226.13 550.753 1223.92 550.157C1222.05 549.657 1220.11 549.53 1218.2 549.782C1216.28 550.034 1214.44 550.66 1212.77 551.624C1211.1 552.589 1209.64 553.873 1208.46 555.403C1207.29 556.933 1206.43 558.68 1205.93 560.543C1205.43 562.406 1205.3 564.35 1205.55 566.262C1205.8 568.174 1206.43 570.018 1207.39 571.689C1208.36 573.359 1209.64 574.824 1211.17 575.998C1212.7 577.172 1214.45 578.033 1216.31 578.533C1218.53 579.123 1220.85 579.186 1223.1 578.717C1225.34 578.248 1227.45 577.26 1229.24 575.831L1218.75 614.988C1217.65 619.084 1220.07 623.264 1224.16 624.362L1259.16 633.74C1257.73 631.945 1256.74 629.841 1256.27 627.596C1255.81 625.351 1255.87 623.027 1256.46 620.81C1257.47 617.047 1259.93 613.839 1263.3 611.891C1266.68 609.943 1270.69 609.415 1274.45 610.424C1276.31 610.923 1278.06 611.784 1279.59 612.959C1281.12 614.133 1282.4 615.597 1283.37 617.268C1284.33 618.938 1284.96 620.782 1285.21 622.694C1285.46 624.607 1285.33 626.55 1284.83 628.413C1284.24 630.628 1283.13 632.672 1281.6 634.382C1280.07 636.092 1278.17 637.42 1276.03 638.26L1311.03 647.638C1315.13 648.735 1319.31 646.322 1320.4 642.226L1330.9 603.07C1331.74 605.204 1333.06 607.112 1334.77 608.641C1336.48 610.169 1338.53 611.276 1340.74 611.873C1344.5 612.881 1348.51 612.354 1351.89 610.406C1355.26 608.458 1357.72 605.25 1358.73 601.487C1359.74 597.724 1359.21 593.715 1357.26 590.341C1355.32 586.967 1352.11 584.505 1348.34 583.497C1346.13 582.907 1343.8 582.843 1341.56 583.312C1339.31 583.781 1337.21 584.77 1335.42 586.198L1345.91 547.041C1347.01 542.945 1344.59 538.765 1340.5 537.667L1305.5 528.29C1307.63 527.45 1309.54 526.122 1311.07 524.412C1312.6 522.702 1313.7 520.658 1314.3 518.444C1314.8 516.58 1314.93 514.637 1314.68 512.725C1314.42 510.812 1313.8 508.968 1312.83 507.298C1311.87 505.627 1310.59 504.163 1309.06 502.989C1307.52 501.815 1305.78 500.953 1303.91 500.454Z" stroke="#C4C4C4" stroke-width="2.84043"/>
<path d="M850.225 311.546C843.867 313.014 837.954 315.984 832.98 320.208C828.007 324.432 824.118 329.786 821.64 335.822C818.608 343.261 817.838 351.429 819.426 359.303C821.014 367.177 824.89 374.408 830.568 380.09L758.862 555.503C750.83 555.581 742.999 558.027 736.35 562.534C729.701 567.041 724.528 573.409 721.481 580.841C719.021 586.885 718.046 593.43 718.636 599.928C719.227 606.426 721.366 612.688 724.875 618.19L735.434 592.36L764.541 584.677L779.932 610.55L769.638 635.732C775.756 634.131 781.419 631.13 786.179 626.967C790.94 622.803 794.668 617.591 797.07 611.741C800.111 604.299 800.888 596.125 799.302 588.243C797.717 580.362 793.84 573.124 788.158 567.437L859.834 392.096C867.873 392.018 875.71 389.568 882.362 385.054C889.015 380.54 894.186 374.163 897.229 366.721C899.613 360.864 900.604 354.532 900.123 348.226C899.642 341.92 897.703 335.812 894.458 330.384L884.164 355.566L855.056 363.248L839.666 337.376L850.225 311.546Z" fill="white"/>
<path d="M873.541 316.763L854.013 319.427L846.556 337.67L858.626 353.249L878.154 350.586L885.611 332.343L873.541 316.763ZM868.532 329.017C870.12 329.666 871.386 330.92 872.05 332.502C872.714 334.085 872.722 335.866 872.073 337.454C871.423 339.043 870.17 340.308 868.587 340.972C867.005 341.636 865.224 341.645 863.635 340.995C862.047 340.346 860.782 339.092 860.117 337.51C859.453 335.928 859.445 334.146 860.094 332.558C860.744 330.969 861.997 329.704 863.58 329.04C865.162 328.376 866.943 328.368 868.532 329.017V329.017Z" fill="white"/>
<path d="M931.958 285.858L905.638 289.448L895.585 314.038L911.854 335.038L938.176 331.448L948.228 306.858L931.958 285.858ZM925.206 302.375C926.267 302.808 927.231 303.446 928.045 304.252C928.859 305.058 929.506 306.017 929.949 307.073C930.392 308.129 930.623 309.262 930.628 310.408C930.634 311.553 930.413 312.689 929.98 313.749C929.546 314.809 928.908 315.773 928.102 316.587C927.296 317.4 926.338 318.047 925.281 318.491C924.225 318.934 923.092 319.164 921.947 319.17C920.802 319.175 919.666 318.955 918.606 318.521C916.465 317.646 914.76 315.956 913.865 313.823C912.97 311.69 912.958 309.29 913.833 307.148C914.267 306.088 914.905 305.124 915.711 304.31C916.517 303.496 917.475 302.849 918.531 302.406C919.587 301.963 920.72 301.732 921.866 301.727C923.011 301.721 924.146 301.942 925.206 302.375V302.375Z" fill="white"/>
<path d="M842.006 306.779C835.648 308.247 829.735 311.218 824.762 315.441C819.788 319.665 815.899 325.019 813.421 331.055C810.39 338.494 809.62 346.662 811.208 354.536C812.796 362.41 816.671 369.641 822.349 375.324L750.644 550.736C742.611 550.814 734.78 553.26 728.131 557.767C721.482 562.274 716.31 568.642 713.262 576.075C710.803 582.118 709.827 588.663 710.418 595.162C711.008 601.66 713.147 607.922 716.656 613.423L727.215 587.593L756.322 579.91L771.713 605.783L761.419 630.965C767.537 629.364 773.2 626.363 777.96 622.2C782.721 618.037 786.449 612.824 788.851 606.974C791.893 599.532 792.669 591.358 791.084 583.476C789.498 575.595 785.621 568.357 779.939 562.67L851.615 387.329C859.654 387.251 867.491 384.801 874.143 380.287C880.796 375.773 885.968 369.396 889.01 361.954C891.394 356.097 892.385 349.765 891.904 343.459C891.423 337.153 889.484 331.045 886.239 325.617L875.945 350.799L846.837 358.482L831.447 332.609L842.006 306.779Z" stroke="#5F5F5F" stroke-width="2.84682"/>
<path d="M869.508 314.089L849.98 316.753L842.523 334.996L854.593 350.575L874.121 347.912L881.578 329.67L869.508 314.089ZM864.499 326.343C866.087 326.992 867.353 328.246 868.017 329.828C868.681 331.411 868.689 333.192 868.04 334.781C867.391 336.369 866.137 337.634 864.554 338.298C862.972 338.962 861.191 338.971 859.603 338.321C858.014 337.672 856.749 336.418 856.085 334.836C855.421 333.254 855.412 331.472 856.062 329.884C856.711 328.296 857.965 327.03 859.547 326.366C861.129 325.702 862.911 325.694 864.499 326.343V326.343Z" stroke="#5F5F5F" stroke-width="2.84682"/>
<path d="M927.925 283.184L901.605 286.774L891.553 311.365L907.822 332.364L934.143 328.775L944.195 304.184L927.925 283.184ZM921.174 299.701C922.234 300.134 923.198 300.772 924.012 301.579C924.826 302.385 925.473 303.343 925.916 304.399C926.359 305.456 926.59 306.589 926.595 307.734C926.601 308.88 926.38 310.015 925.947 311.075C925.513 312.135 924.875 313.1 924.069 313.913C923.263 314.727 922.305 315.374 921.249 315.817C920.192 316.26 919.059 316.491 917.914 316.496C916.769 316.501 915.634 316.281 914.573 315.847C912.432 314.972 910.727 313.282 909.832 311.15C908.937 309.017 908.926 306.616 909.801 304.475C910.234 303.415 910.872 302.45 911.678 301.636C912.484 300.823 913.442 300.176 914.499 299.732C915.555 299.289 916.688 299.058 917.833 299.053C918.978 299.048 920.113 299.268 921.174 299.701V299.701Z" stroke="#5F5F5F" stroke-width="2.84682"/>
<path d="M95.0804 793.857L66.1051 822.845L75.5436 892.588L107.85 888.215L95.0804 793.857Z" fill="#F8A1A1"/>
<path d="M61.0271 827.924L38.6147 850.345L30.6513 846.563L37.5753 897.726L69.8819 893.354L61.0271 827.924Z" fill="white"/>
<path d="M7.51177 835.575L-7.58965 849.688L-0.393115 902.864L31.9146 898.492L24.4911 843.638L7.51177 835.575Z" fill="#C4C4C4"/>
<path d="M108.997 748.627C99.0482 750.038 74.8154 760.733 74.2694 764.924C74.0164 766.866 78.3379 771.462 83.9513 776.223L34.9688 825.225L3.99144 810.512L-44.3362 855.677C-44.8679 856.162 -45.298 856.749 -45.6016 857.401C-45.9051 858.054 -46.0761 858.761 -46.1046 859.481C-46.1331 860.2 -46.0185 860.918 -45.7676 861.593C-45.5166 862.268 -45.1342 862.886 -44.6426 863.412C-44.1509 863.938 -43.5597 864.362 -42.9033 864.658C-42.2469 864.954 -41.5383 865.116 -40.8185 865.136C-40.0988 865.157 -39.3822 865.034 -38.7102 864.775C-38.0383 864.516 -37.4244 864.127 -36.9041 863.629L6.01251 823.52L37.2378 838.352L92.6195 782.947C99.1966 787.613 105.478 791.1 107.421 790.292C112.047 788.369 116.793 751.942 112.815 748.898C112.193 748.422 110.84 748.365 108.997 748.627V748.627Z" fill="white"/>
<path d="M98.9143 786.18L69.939 815.168L79.3775 884.91L111.684 880.538L98.9143 786.18ZM64.8609 820.247L42.4486 842.668L34.4851 838.886L41.4092 890.048L73.7157 885.676L64.8609 820.247ZM11.3457 827.897L-3.75571 842.01L3.44083 895.187L35.7486 890.815L28.325 835.961L11.3457 827.897ZM-8.87278 846.793L-38.0786 874.086L-34.5275 900.325L-2.21976 895.953L-8.87278 846.793Z" stroke="#C4C4C4" stroke-width="2.92581" stroke-linecap="round"/>
<path d="M112.831 740.949C102.882 742.361 78.6493 753.056 78.1032 757.247C77.8502 759.189 82.1718 763.785 87.7851 768.546L38.8027 817.548L7.82534 802.835L-40.5023 847.999C-41.034 848.485 -41.4641 849.071 -41.7677 849.724C-42.0713 850.377 -42.2423 851.084 -42.2708 851.803C-42.2993 852.523 -42.1847 853.241 -41.9338 853.916C-41.6828 854.591 -41.3004 855.209 -40.8088 855.735C-40.3171 856.261 -39.7259 856.684 -39.0695 856.98C-38.4131 857.276 -37.7044 857.439 -36.9847 857.459C-36.2649 857.479 -35.5483 857.356 -34.8763 857.098C-34.2044 856.839 -33.5905 856.449 -33.0702 855.951L9.84642 815.843L41.0717 830.674L96.4534 775.269C103.03 779.935 109.312 783.423 111.255 782.615C115.88 780.692 120.627 744.265 116.649 741.22C116.027 740.745 114.674 740.688 112.831 740.949V740.949Z" stroke="#C4C4C4" stroke-width="2.92581" stroke-linecap="round"/>
<path d="M94.2401 1125.64L4.14031 1194.91C0.0947198 1198.02 -0.663501 1203.82 2.44677 1207.87L100.437 1335.33C103.548 1339.37 109.349 1340.13 113.394 1337.02L203.494 1267.75C207.54 1264.64 208.298 1258.84 205.188 1254.79L107.197 1127.33C104.087 1123.29 98.2856 1122.53 94.2401 1125.64Z" fill="white"/>
<path d="M120.184 1126.48L15.9632 1171.8C11.2836 1173.84 9.13979 1179.28 11.1749 1183.96L75.2926 1331.39C77.3278 1336.07 82.7711 1338.22 87.4508 1336.18L191.671 1290.86C196.351 1288.82 198.495 1283.38 196.459 1278.7L132.342 1131.27C130.307 1126.59 124.863 1124.44 120.184 1126.48Z" stroke="white" stroke-width="5"/>
<path d="M123.107 1151.1L31.9779 1190.73L35.4942 1198.81L126.623 1159.18L123.107 1151.1Z" fill="white"/>
<path d="M143.589 1198.2L52.4604 1237.83L55.9767 1245.91L147.106 1206.28L143.589 1198.2Z" fill="white"/>
<path d="M107.07 1186.07L42.2191 1214.28L45.7354 1222.36L110.587 1194.16L107.07 1186.07Z" fill="white"/>
<path d="M127.553 1233.17L62.7016 1261.38L66.2179 1269.46L131.069 1241.26L127.553 1233.17Z" fill="white"/>
<path d="M164.072 1245.29L72.9428 1284.92L76.4591 1293.01L167.588 1253.38L164.072 1245.29Z" fill="white"/>
<path d="M139.945 1171.8L150.231 1240.6C150.231 1240.6 150.644 1242.07 150.561 1242.8C149.851 1249.06 145.473 1260.13 143.651 1260.4C141.828 1260.67 134.406 1251.37 131.896 1245.59C131.6 1244.91 131.567 1243.39 131.567 1243.39L121.28 1174.6L139.945 1171.8Z" fill="#FFEDED"/>
<path d="M121.281 1174.6L120.047 1166.35C119.854 1165.05 120.739 1163.86 122.031 1163.66L136.03 1161.57C137.322 1161.38 138.518 1162.26 138.712 1163.56L139.945 1171.8L121.281 1174.6Z" fill="#DE8787"/>
<path d="M121.261 1174.47L139.926 1171.68L150.255 1240.76C150.255 1240.76 147.685 1241.24 147.044 1240.98C145.714 1240.44 145.868 1237.58 144.433 1237.55C142.563 1237.52 142.735 1241.62 140.885 1241.9C139.035 1242.18 138 1238.2 136.22 1238.78C134.854 1239.22 135.84 1241.92 134.725 1242.82C134.188 1243.26 131.59 1243.55 131.59 1243.55L121.261 1174.47Z" fill="#C4C4C4"/>
<path d="M137.659 1254.79C140.186 1258.03 142.692 1260.54 143.651 1260.4C144.609 1260.25 146.272 1257.12 147.738 1253.28L137.659 1254.79Z" fill="white"/>
<path d="M135.945 1169.8L146.231 1238.6C146.231 1238.6 146.644 1240.06 146.561 1240.8C145.851 1247.06 141.473 1258.13 139.651 1258.4C137.828 1258.67 130.406 1249.37 127.896 1243.59C127.6 1242.91 127.567 1241.39 127.567 1241.39L117.28 1172.6L135.945 1169.8Z" stroke="#C4C4C4" stroke-width="1.2734"/>
<path d="M117.281 1172.6L116.047 1164.35C115.854 1163.05 116.739 1161.86 118.031 1161.66L132.03 1159.57C133.322 1159.38 134.518 1160.26 134.712 1161.56L135.945 1169.8L117.281 1172.6Z" stroke="#C4C4C4" stroke-width="1.2734"/>
<path d="M117.261 1172.47L135.926 1169.68L146.255 1238.76C146.255 1238.76 143.685 1239.24 143.044 1238.98C141.714 1238.44 141.868 1235.58 140.433 1235.55C138.563 1235.52 138.735 1239.62 136.885 1239.9C135.035 1240.18 134 1236.2 132.22 1236.78C130.854 1237.22 131.84 1239.92 130.725 1240.82C130.188 1241.26 127.59 1241.55 127.59 1241.55L117.261 1172.47Z" stroke="#C4C4C4" stroke-width="1.2734"/>
<path d="M133.659 1252.79C136.186 1256.03 138.692 1258.54 139.651 1258.4C140.609 1258.25 142.272 1255.12 143.738 1251.28L133.659 1252.79Z" stroke="#C4C4C4" stroke-width="1.2734"/>
<path d="M122.532 1171.68L132.264 1236.77C134.016 1236.27 135.05 1240.17 136.885 1239.9C138.719 1239.63 138.567 1235.59 140.388 1235.56L130.655 1170.47L122.532 1171.68Z" stroke="#C4C4C4" stroke-width="1.2734"/>
<rect x="-3" width="1392" height="2000" fill="#5F5F5F" fill-opacity="0.71"/>
</g>
<defs>
<clipPath id="clip0">
<rect width="1389" height="2000" fill="white"/>
</clipPath>
</defs>
</svg>
